<?xml version="1.0" encoding="UTF-8" standalone="no"?>
<svg
   viewBox="0 0 24 24"
   version="1.1"
   id="svg1"
   sodipodi:docname="ferry_midway_stopped.svg"
   inkscape:version="1.3 (0e150ed6c4, 2023-07-21)"
   xmlns:inkscape="http://www.inkscape.org/namespaces/inkscape"
   xmlns:sodipodi="http://sodipodi.sourceforge.net/DTD/sodipodi-0.dtd"
   xmlns:xlink="http://www.w3.org/1999/xlink"
   xmlns="http://www.w3.org/2000/svg"
   xmlns:svg="http://www.w3.org/2000/svg">
  <defs
     id="defs1">
    <inkscape:perspective
       sodipodi:type="inkscape:persp3d"
       inkscape:vp_x="0 : 12 : 1"
       inkscape:vp_y="0 : 1000 : 0"
       inkscape:vp_z="12.910786 : 11.009321 : 1"
       inkscape:persp3d-origin="12 : 8 : 1"
       id="perspective3" />
    <linearGradient
       id="swatch3"
       inkscape:swatch="solid">
      <stop
         style="stop-color:#000000;stop-opacity:1;"
         offset="0"
         id="stop3" />
    </linearGradient>
    <linearGradient
       inkscape:collect="always"
       xlink:href="#swatch3"
       id="linearGradient3"
       gradientTransform="scale(0.63586733,1.5726551)"
       x1="1.8773439"
       y1="0.75906133"
       x2="14.908814"
       y2="0.75906133"
       gradientUnits="userSpaceOnUse" />
    <inkscape:perspective
       sodipodi:type="inkscape:persp3d"
       inkscape:vp_x="3 : 15.766977 : 1"
       inkscape:vp_y="0 : 1000 : 0"
       inkscape:vp_z="15.910786 : 14.776298 : 1"
       inkscape:persp3d-origin="15 : 11.766977 : 1"
       id="perspective3-9" />
    <inkscape:perspective
       sodipodi:type="inkscape:persp3d"
       inkscape:vp_x="9 : 12.766977 : 1"
       inkscape:vp_y="0 : 1000 : 0"
       inkscape:vp_z="21.910786 : 11.776298 : 1"
       inkscape:persp3d-origin="21 : 8.766977 : 1"
       id="perspective3-0" />
    <inkscape:perspective
       sodipodi:type="inkscape:persp3d"
       inkscape:vp_x="18.990679 : 12.485921 : 1"
       inkscape:vp_y="0 : 1000 : 0"
       inkscape:vp_z="12.215713 : 11.655029 : 1"
       inkscape:persp3d-origin="30 : 9.508558 : 1"
       id="perspective3-0-7" />
    <inkscape:perspective
       sodipodi:type="inkscape:persp3d"
       inkscape:vp_x="19 : 12.071904 : 1"
       inkscape:vp_y="0 : -1000 : 0"
       inkscape:vp_z="31.910786 : 13.062583 : 1"
       inkscape:persp3d-origin="31 : 16.071904 : 1"
       id="perspective3-7" />
    <inkscape:perspective
       sodipodi:type="inkscape:persp3d"
       inkscape:vp_x="19.095823 : 14.766977 : 1"
       inkscape:vp_y="0 : 1000 : 0"
       inkscape:vp_z="6.1850369 : 13.776298 : 1"
       inkscape:persp3d-origin="7.0958229 : 10.766977 : 1"
       id="perspective3-07" />
    <inkscape:perspective
       sodipodi:type="inkscape:persp3d"
       inkscape:vp_x="25.095823 : 13.533954 : 1"
       inkscape:vp_y="0 : 1000 : 0"
       inkscape:vp_z="12.185037 : 12.543275 : 1"
       inkscape:persp3d-origin="13.095823 : 9.533954 : 1"
       id="perspective3-07-2" />
    <inkscape:perspective
       sodipodi:type="inkscape:persp3d"
       inkscape:vp_x="25.095823 : 12.300931 : 1"
       inkscape:vp_y="0 : 1000 : 0"
       inkscape:vp_z="12.185037 : 11.310252 : 1"
       inkscape:persp3d-origin="13.095823 : 8.300931 : 1"
       id="perspective3-07-2-4" />
    <inkscape:perspective
       sodipodi:type="inkscape:persp3d"
       inkscape:vp_x="15 : 15.557489 : 1"
       inkscape:vp_y="0 : 1000 : 0"
       inkscape:vp_z="27.910786 : 14.56681 : 1"
       inkscape:persp3d-origin="27 : 11.557489 : 1"
       id="perspective3-9-6" />
    <linearGradient
       inkscape:collect="always"
       xlink:href="#swatch3"
       id="linearGradient122"
       gradientUnits="userSpaceOnUse"
       gradientTransform="scale(0.63586733,1.5726551)"
       x1="1.8773439"
       y1="0.75906133"
       x2="14.908814"
       y2="0.75906133" />
    <clipPath
       clipPathUnits="userSpaceOnUse"
       id="clipPath218">
      <path
         id="path219"
         style="fill:#ff0000;fill-opacity:1;fill-rule:nonzero;stroke:none"
         d="M 3.0266996,-0.45718803 -11.304253,7.1703112 -1.0871476,26.366753 13.243804,18.739253 Z M 8.459958,15.71645 c 0.00533,0.01001 0.00152,0.02575 -0.018297,0.03629 l -0.041379,0.02202 -0.044827,0.02386 -0.032758,0.01743 -0.027586,0.01468 -0.032759,0.01743 c -0.012762,0.0069 -0.025972,0.01224 -0.039763,0.01675 -0.00116,4.13e-4 -0.00225,0.0014 -0.00345,0.0018 -0.00291,0.0033 -0.00773,0.0064 -0.012853,0.0091 l -0.032759,0.01744 c -0.00194,0.0065 -0.00686,0.01294 -0.017024,0.0179 -0.009,0.0044 -0.019124,0.0092 -0.028526,0.01292 -0.011813,0.0047 -0.02327,0.0088 -0.035531,0.01223 -0.00958,0.0035 -0.02038,0.0063 -0.029418,0.01124 -0.00991,0.0054 -0.018079,0.006 -0.024355,0.0041 l -0.012069,0.0064 c -0.00744,0.0042 -0.015556,0.0068 -0.023353,0.01016 l -0.00172,9.16e-4 c -0.00299,0.0013 -0.0056,0.0033 -0.00862,0.0046 -0.041243,0.01776 -0.058962,-0.02384 -0.017653,-0.04149 0.00916,-0.0039 0.017246,-0.0089 0.025862,-0.01376 0.00303,-0.0076 0.0087,-0.01494 0.02309,-0.01897 0.010781,-0.0029 0.021758,-0.0058 0.032082,-0.01039 0.00741,-0.003 0.013894,-0.0071 0.02069,-0.01101 -0.00799,-0.0055 -0.00913,-0.01638 -6.68e-4,-0.0262 -0.034106,0.01822 -0.05246,-0.01626 -0.018352,-0.03448 0.011767,-0.0063 0.02445,-0.01296 0.036207,-0.01927 0.019684,-0.01057 0.039094,-0.02034 0.05862,-0.0312 0.023749,-0.01332 0.047299,-0.02789 0.070581,-0.04198 0.020828,-0.01267 0.041634,-0.02431 0.061021,-0.03916 0.015385,-0.0117 0.029113,-0.01051 0.035733,-0.0035 0.00664,0.0069 0.00703,0.01857 -0.00795,0.03079 -0.021209,0.01718 -0.045495,0.03124 -0.068748,0.04543 -0.018186,0.01104 -0.036438,0.02291 -0.055064,0.03373 0.017083,-0.0091 0.030478,-0.0051 0.035038,0.0035 5.169e-4,9.71e-4 0.00156,0.0023 0.00183,0.0034 l 0.00517,-0.0028 0.055172,-0.02937 0.036207,-0.01927 c 0.013473,-0.0072 0.024726,-0.0058 0.032285,-0.0017 l 0.024138,-0.01285 0.041379,-0.02202 c 0.019813,-0.01055 0.034995,-0.0049 0.040323,0.0051 z m -7.2192329,0.158486 c 0.00146,0.0015 0.00195,0.0035 0.00277,0.0052 0.00525,0.01148 -0.00593,0.02692 -0.029876,0.027 -0.00761,-3e-5 -0.014672,-0.0017 -0.021942,-0.0038 -0.00226,0.0026 -0.00315,0.0064 -0.00682,0.008 -0.00877,0.0033 -0.017464,0.0067 -0.026907,0.0076 -0.010029,0.0025 -0.021611,0.0062 -0.03219,0.006 -0.00416,6.2e-5 -0.00876,-0.0016 -0.012316,-0.0023 -0.008,-0.0031 -0.017061,-0.0096 -0.021496,-0.01953 -0.00467,-0.01282 -0.00883,-0.0268 -0.00364,-0.0401 0.0072,-0.0112 0.014651,-0.01528 0.026535,-0.02081 0.011378,-0.0047 0.023364,-0.0097 0.035531,-0.01223 0.010193,-0.0027 0.020928,-0.0056 0.031251,-0.0078 0.014158,-0.003 0.024125,0.001 0.029868,0.0062 0.00948,0.0093 0.00506,0.02611 -0.01841,0.03192 -0.002,5e-4 -0.00363,0.0011 -0.00615,0.001 0.00965,0.003 0.019664,0.0062 0.029868,0.0062 0.010871,-8e-6 0.019275,0.0028 0.023778,0.0073 z M -2.3841615,11.4255 c 0.00383,0.0067 0.00307,0.01663 -0.00451,0.02895 -0.00492,0.008 -0.00854,0.01652 -0.010703,0.02561 -0.00325,0.0105 -0.00409,0.02238 -0.00439,0.03331 2.244e-4,0.01234 -0.00116,0.02449 -0.00256,0.03676 5.9e-5,0.01075 -0.00448,0.02071 -0.00795,0.03078 -0.00285,0.0072 -0.0023,0.0144 -0.00381,0.02194 -0.00149,0.007 -0.00297,0.01485 -0.00381,0.02194 -6.689e-4,0.0064 -0.00148,0.01191 -0.00131,0.0184 9.046e-4,0.0083 1.068e-4,0.01787 6.661e-4,0.0262 7.017e-4,0.0077 0.00234,0.0144 0.00489,0.02174 0.00374,0.01044 0.00731,0.02119 0.012158,0.03114 0.00527,0.0106 0.011032,0.02052 0.016518,0.03103 0.00496,0.0095 0.00967,0.01815 0.014682,0.02759 0.00488,0.0092 0.00979,0.01839 0.014682,0.02759 l 0.012847,0.02414 0.01193,0.02241 0.012847,0.02414 0.014682,0.02759 0.01193,0.02241 0.00367,0.0069 c 0.018168,0.03414 -0.016333,0.05251 -0.03448,0.01835 l -0.00367,-0.0069 -0.00367,-0.0069 c -0.011224,0.01635 -0.023369,0.01339 -0.039986,0.008 -0.00957,-0.0035 -0.018857,-0.0075 -0.028252,-0.01151 -0.011063,-0.0044 -0.017878,-0.01337 -0.025028,-0.02208 -0.01651,0.0064 -0.030672,-0.0087 -0.01996,-0.0292 -0.00276,-0.0052 -0.00586,-0.01028 -0.00826,-0.01552 -0.00649,-0.01351 -0.00831,-0.02584 -0.00364,-0.0401 0.00202,-0.0028 0.00288,-0.005 0.00681,-0.0081 0.00892,-0.0048 0.016177,-0.0049 0.022631,-0.0032 l -0.00275,-0.0052 -0.022024,-0.04138 c -0.011465,-0.02154 -0.00117,-0.0357 0.012205,-0.03526 -0.00534,-0.01106 -0.00989,-0.02305 -0.013993,-0.03459 -0.00333,-0.01051 -0.00527,-0.02118 -0.00603,-0.03219 -3.273e-4,-0.0053 5.007e-4,-0.01055 4.623e-4,-0.01573 -0.00228,-0.0015 -0.00418,-0.0032 -0.00711,-0.0051 -0.00858,-0.0091 -0.015457,-0.01776 -0.023403,-0.02737 -0.00525,-0.0071 -0.01067,-0.01366 -0.017138,-0.01964 -0.00982,-0.0093 -0.014035,-0.02318 -0.00787,-0.03564 0.00103,-0.0021 0.00206,-0.0042 0.00337,-0.0062 0.014987,-0.01528 0.031166,-0.01234 0.044574,6.14e-4 -6.794e-4,-0.0049 -9.634e-4,-0.0099 -0.00122,-0.01484 -0.00131,-0.02471 0.012926,-0.0348 0.024614,-0.02859 4.18e-5,-0.0018 0.00171,-0.0034 0.00161,-0.0053 4.13e-4,-0.01391 0.00278,-0.02781 0.00681,-0.04124 0.00361,-0.01281 0.00844,-0.02586 0.015656,-0.0371 0.013071,-0.02033 0.030922,-0.02016 0.037349,-0.0088 z m 2.64115632,5.03718 c 0.0159401,0.02058 -0.006473,0.04198 -0.0343782,0.02272 -0.0131628,-0.0092 -0.0260812,-0.01722 -0.0399597,-0.02519 -0.006944,-0.0039 -0.0149229,-0.0091 -0.022164,-0.01255 l -0.002705,-8.26e-4 c 2.7229e-4,0.0011 0.001587,0.0024 0.001832,0.0034 -0.002764,0.0057 -0.003964,0.01299 -0.008291,0.01769 -0.006836,0.0074 -0.016873,0.0029 -0.0252961,0.0024 -0.008076,-9.13e-4 -0.0172121,4.38e-4 -0.0252961,0.0024 -0.01420316,0.0037 -0.02828018,0.0078 -0.04253631,0.01154 -0.01904147,0.0038 -0.03183045,0.0019 -0.04744137,-0.01015 -0.01652652,-0.01445 -0.02961953,-0.03232 -0.03893194,-0.05229 -0.0074257,-0.01949 -0.01518139,-0.0398 -0.01028753,-0.0609 0.0061812,-0.01727 0.01574607,-0.0299 0.03312376,-0.03754 0.00337723,-8.91e-4 0.0053606208,-0.0038 0.00959066,-0.0028 0.01292143,-9.86e-4 0.02296887,0.0041 0.03262089,0.0114 0.0086836,0.0055 0.01785011,0.01162 0.02663393,0.0168 0.009283,0.0062 0.01794905,0.01287 0.02756364,0.01852 0.01042985,0.0064 0.02084393,0.0099 0.03100639,0.01669 0.0110977,0.0068 0.02309,0.01308 0.0345601,0.01922 0.0145722,0.0078 0.0308151,0.01409 0.0451374,0.02244 0.0156629,0.009 0.0314776,0.01798 0.0461557,0.02853 0.003874,0.0028 0.006719,0.0056 0.008949,0.0085 z m -0.15886861,-0.02828 c -0.0011034,-8.85e-4 -0.0024574,-0.0016 -0.0035979,-0.0025 -0.0036562,-0.003 -0.0081653,-0.0062 -0.01163091,-0.0093 -0.0082455,-0.0074 -0.0090673,-0.01491 -0.0092474,-0.02163 L 0.0709448,16.40014 c -0.0099479,-0.0059 -0.02047954,-0.01298 -0.03020119,-0.01933 -0.0087135,-0.0049 -0.01721528,-0.0097 -0.02572659,-0.01507 -0.0028988,-0.0014 -0.0045504,-0.003 -0.00710746,-0.0051 -0.00401394,0.0031 -0.00747186,0.0084 -0.008402517,0.01331 -2.793827e-5,0.01208 0.005330457,0.02364 0.009633967,0.0347 0.00673724,0.01395 0.0161331,0.02605 0.02799053,0.03599 0.0048437,0.004 0.0084857,0.003 0.01401059,0.0014 0.01371794,-0.0038 0.0270207,-0.007 0.04080612,-0.01062 0.0018873,-4.98e-4 0.0035402,-0.001 0.0061479,-0.001 z" />
    </clipPath>
    <linearGradient
       inkscape:collect="always"
       xlink:href="#swatch3"
       id="linearGradient220"
       gradientUnits="userSpaceOnUse"
       gradientTransform="scale(0.63586733,1.5726551)"
       x1="1.8773439"
       y1="0.75906133"
       x2="14.908814"
       y2="0.75906133" />
    <linearGradient
       inkscape:collect="always"
       xlink:href="#swatch3"
       id="linearGradient221"
       gradientUnits="userSpaceOnUse"
       gradientTransform="scale(0.63586733,1.5726551)"
       x1="1.8773439"
       y1="0.75906133"
       x2="14.908814"
       y2="0.75906133" />
    <linearGradient
       inkscape:collect="always"
       xlink:href="#swatch3"
       id="linearGradient227"
       gradientUnits="userSpaceOnUse"
       gradientTransform="scale(0.63586733,1.5726551)"
       x1="1.8773439"
       y1="0.75906133"
       x2="14.908814"
       y2="0.75906133" />
  </defs>
  <sodipodi:namedview
     id="namedview1"
     pagecolor="#ffffff"
     bordercolor="#000000"
     borderopacity="0.25"
     inkscape:showpageshadow="2"
     inkscape:pageopacity="0.0"
     inkscape:pagecheckerboard="0"
     inkscape:deskcolor="#d1d1d1"
     showgrid="false"
     inkscape:zoom="32.592586"
     inkscape:cx="12.671593"
     inkscape:cy="11.060798"
     inkscape:window-width="1920"
     inkscape:window-height="986"
     inkscape:window-x="-11"
     inkscape:window-y="-11"
     inkscape:window-maximized="1"
     inkscape:current-layer="layer3" />
  <path
     d="M 8.7369109,5.8701344 H 15.997541 V 7.7543897 L 12.367225,6.8217791 8.7369109,7.7543897 M 7.4905024,12.055821 h 0.036303 l 4.6470606,2.174462 5.03378,-2.174462 h 0.03025 l 1.1496,-3.1832496 c 0.0484,-0.1189556 0.03025,-0.2521857 -0.0363,-0.366383 C 18.272536,8.391991 18.145478,8.3063429 17.988165,8.2682773 L 17.207646,8.0684318 V 5.8701344 c 0,-0.5281626 -0.544548,-0.9516443 -1.210105,-0.9516443 H 14.182383 V 3.4910238 H 10.552067 V 4.9184901 H 8.7369109 c -0.6683228,0 -1.2101053,0.4260656 -1.2101053,0.9516443 V 8.0684318 L 6.7462877,8.2682773 C 6.588974,8.3063461 6.461913,8.391991 6.3832561,8.5061884 6.3167001,8.6203857 6.2985491,8.7536158 6.3469531,8.8725714"
     id="boat"
     sodipodi:nodetypes="ccccccccccccccssccccsscccc"
     style="display:inline;opacity:1;stroke-width:1.11783"
     inkscape:label="boat" />
  <g
     inkscape:groupmode="layer"
     id="layer1"
     inkscape:label="lift"
     style="display:inline;stroke:url(#linearGradient3)"
     transform="rotate(-61.976327,4.7658143,2.6265181)"
     clip-path="url(#clipPath218)">
    <g
       id="craddle"
       style="display:inline;stroke:url(#linearGradient122)"
       transform="matrix(1.0099839,-0.03133237,-0.03133237,0.96779122,2.3374461,-0.09466272)">
      <g
         id="g227"
         style="stroke:url(#linearGradient227)">
        <rect
           style="display:inline;fill:#000000;stroke:#000000;stroke-opacity:1"
           id="rect111-4-9"
           width="0.095870972"
           height="0.89480543"
           x="13.956724"
           y="15.618508"
           inkscape:transform-center-x="-8.7882823"
           inkscape:transform-center-y="-1.2463382"
           transform="rotate(61.976327,4.7658143,2.6265181)" />
        <rect
           style="display:inline;fill:#000000;stroke:#000000;stroke-opacity:1"
           id="rect111-4"
           width="0.095870972"
           height="0.89480543"
           x="9.5785608"
           y="15.614513"
           inkscape:transform-center-x="-8.7882823"
           inkscape:transform-center-y="-1.2463382"
           transform="rotate(61.976327,4.7658143,2.6265181)" />
        <rect
           style="opacity:1;fill:#000000;stroke:#000000;stroke-width:0.832123;stroke-opacity:1"
           id="rect113"
           width="0.080445312"
           height="3.6392918"
           x="-4.1772532"
           y="9.9855127"
           transform="matrix(0.99768585,0.06799218,-0.1052594,0.9944448,0,0)"
           inkscape:transform-center-x="0.13022113"
           inkscape:transform-center-y="-0.054267033" />
        <rect
           style="fill:#000000;stroke:#000000;stroke-width:0.827438;stroke-opacity:1"
           id="rect113-6"
           width="0.080255851"
           height="3.6069608"
           x="16.787338"
           y="-11.121264"
           transform="matrix(-0.55467599,0.83206643,-0.85269729,-0.52240533,0,0)" />
        <rect
           style="opacity:1;fill:#000000;stroke:#000000;stroke-opacity:1"
           id="rect115"
           width="4.5379496"
           height="0.22370173"
           x="9.3791237"
           y="10.922447"
           transform="rotate(61.976327)" />
      </g>
    </g>
    <g
       id="g220"
       inkscape:label="lift right"
       style="stroke:url(#linearGradient220)"
       transform="matrix(0.93801493,-0.01858382,-0.01858382,0.91298969,0.91097264,1.962696)">
      <rect
         style="display:inline;fill:#000000;stroke:#000000;stroke-opacity:1"
         id="rect121-2"
         width="1.0865513"
         height="15.115846"
         x="21.177393"
         y="-2.2686319"
         transform="rotate(61.976327)"
         ry="0.047936086" />
      <rect
         style="fill:#000000;stroke:#000000;stroke-width:0.669661;stroke-opacity:1"
         id="rect121-0-4"
         width="0.77774245"
         height="9.4701538"
         x="18.207016"
         y="-1.2475183"
         transform="rotate(61.976327)"
         ry="0.030032195" />
      <rect
         style="fill:#000000;stroke:#000000;stroke-width:0.506432;stroke-opacity:1"
         id="rect121-0-4-6"
         width="1.0622739"
         height="3.9653976"
         x="-9.8217087"
         y="22.694906"
         transform="matrix(0.97652684,-0.21539574,0.79211625,0.61037026,0,0)"
         ry="0.012575251"
         inkscape:transform-center-x="2.9082179"
         inkscape:transform-center-y="7.2074589" />
    </g>
    <g
       id="g219"
       inkscape:label="lift left"
       style="stroke:url(#linearGradient221)"
       transform="matrix(0.98478737,0.01803491,0.01803491,1.0090734,0.16556817,0.02297104)">
      <rect
         style="fill:#000000;stroke:#000000;stroke-width:0.41781;stroke-opacity:1"
         id="rect121-0-4-6-9"
         width="0.72662938"
         height="3.9457192"
         x="2.4795225"
         y="1.605263"
         transform="matrix(0.92503604,-0.37987936,0.15978196,0.98715233,0,0)"
         ry="0.012512848"
         inkscape:transform-center-x="1.5377734"
         inkscape:transform-center-y="4.4019256" />
      <rect
         style="display:inline;opacity:1;fill:#000000;stroke:#000000;stroke-opacity:1"
         id="rect121"
         width="1.0865513"
         height="15.115846"
         x="1.5176057"
         y="-2.2759554"
         transform="rotate(61.976327)"
         ry="0.047936086" />
      <rect
         style="display:inline;fill:#000000;stroke:#000000;stroke-width:0.669661;stroke-opacity:1"
         id="rect121-0"
         width="0.77774245"
         height="9.4701538"
         x="4.6886549"
         y="-1.1584384"
         transform="rotate(61.976327)"
         ry="0.030032195" />
    </g>
  </g>
  <g
     inkscape:groupmode="layer"
     id="layer3"
     inkscape:label="water">
    <g
       id="g228"
       transform="matrix(0.97572392,0,0,1,0.50760214,0)">
      <path
         d="m 14.417825,16.962886 c -0.876925,0 -1.753849,-0.332175 -2.523525,-0.939985 -1.53935,1.208552 -3.5077002,1.208552 -5.0470504,0 -0.7696751,0.60781 -1.6466002,0.939985 -2.5235252,0.939985 H 4.1187511 3.2460528 l -0.030682,1.413511 h 1.1083534 c 0.8643075,0 1.7286148,-0.247365 2.5235252,-0.706756 1.5772037,0.918782 3.4698476,0.918782 5.0470506,0 0.794911,0.459391 1.652909,0.706756 2.523525,0.706756 h 1.261762 v -1.413511 z"
         id="path1"
         style="display:inline;stroke-width:0.667741"
         sodipodi:nodetypes="sccscccsccsccs" />
      <path
         d="m 20.226845,16.908739 c -0.879639,6e-6 -1.759278,-0.35974 -2.531337,-1.017989 -1.544116,1.308842 -3.978785,1.216797 -5.522901,-0.09205 -0.772056,0.658249 -1.19147,1.110034 -2.07111,1.110034 H 9.8958891 8.8358285 l -0.1840909,1.438763 1.4497594,0.09204 c 0.865241,0.05493 1.733967,-0.267892 2.531337,-0.765405 1.582087,0.995026 3.480588,0.995026 5.062674,0 0.797372,0.497513 1.658027,0.765405 2.531337,0.765405 l 0.682714,0.03068 v -1.56149 z"
         id="path1-9"
         style="display:inline;stroke-width:0.69597"
         sodipodi:nodetypes="sccscccsccsccs" />
    </g>
  </g>
</svg>
